name rise30.9205peak61.366fall85.3838.mot
datacolumns 19
datarows 33
range 23.57491000000000 23.62824400000000
endheader
time	ground_force1_vx	ground_force1_vy	ground_force1_vz	ground_force1_px	ground_force1_py	ground_force1_pz	ground_force2_vx	ground_force2_vy	ground_force2_vz	ground_force2_px	ground_force2_py	ground_force2_pz	ground_torque1_x	ground_torque1_y	ground_torque1_z	ground_torque2_x	ground_torque2_y	ground_torque2_z	
23.57491000000000	7.70809000000000	699.32997499999999	40.47358500000000	0.25386500000000	0.00000000000000	0.09377500000000	0.00000000000000	0.00000000000000	0.00000000000000	0.00000000000000	0.00000000000000	0.00000000000000	0.00000000000000	17.62283300000000	0.00000000000000	0.00000000000000	0.00000000000000	0.00000000000000	
23.57657400000000	7.37103700000000	699.57621800000004	40.49656500000000	0.25327100000000	0.00000000000000	0.09382100000000	0.00000000000000	0.00000000000000	0.00000000000000	0.00000000000000	0.00000000000000	0.00000000000000	0.00000000000000	17.66806900000000	0.00000000000000	0.00000000000000	0.00000000000000	0.00000000000000	
23.57824900000000	7.02692300000000	699.85981000000004	40.52106000000000	0.25266600000000	0.00000000000000	0.09386500000000	0.00000000000000	0.00000000000000	0.00000000000000	0.00000000000000	0.00000000000000	0.00000000000000	0.00000000000000	17.71543000000000	0.00000000000000	0.00000000000000	0.00000000000000	0.00000000000000	
23.57990800000000	6.67541000000000	700.18013099999996	40.54689100000000	0.25204700000000	0.00000000000000	0.09390800000000	0.00000000000000	0.00000000000000	0.00000000000000	0.00000000000000	0.00000000000000	0.00000000000000	0.00000000000000	17.76477300000000	0.00000000000000	0.00000000000000	0.00000000000000	0.00000000000000	
23.58158100000000	6.31617900000000	700.53659800000003	40.57388400000000	0.25141400000000	0.00000000000000	0.09394900000000	0.00000000000000	0.00000000000000	0.00000000000000	0.00000000000000	0.00000000000000	0.00000000000000	0.00000000000000	17.81596200000000	0.00000000000000	0.00000000000000	0.00000000000000	0.00000000000000	
23.58324500000000	5.94893300000000	700.92866300000003	40.60187400000000	0.25076400000000	0.00000000000000	0.09398900000000	0.00000000000000	0.00000000000000	0.00000000000000	0.00000000000000	0.00000000000000	0.00000000000000	0.00000000000000	17.86886700000000	0.00000000000000	0.00000000000000	0.00000000000000	0.00000000000000	
23.58491000000000	5.57339900000000	701.35582099999999	40.63070400000000	0.25009600000000	0.00000000000000	0.09402700000000	0.00000000000000	0.00000000000000	0.00000000000000	0.00000000000000	0.00000000000000	0.00000000000000	0.00000000000000	17.92336500000000	0.00000000000000	0.00000000000000	0.00000000000000	0.00000000000000	
23.58657600000000	5.18932600000000	701.81760999999995	40.66022600000000	0.24940800000000	0.00000000000000	0.09406400000000	0.00000000000000	0.00000000000000	0.00000000000000	0.00000000000000	0.00000000000000	0.00000000000000	0.00000000000000	17.97934100000000	0.00000000000000	0.00000000000000	0.00000000000000	0.00000000000000	
23.58824200000000	4.79648500000000	702.31361100000004	40.69030200000000	0.24870000000000	0.00000000000000	0.09410100000000	0.00000000000000	0.00000000000000	0.00000000000000	0.00000000000000	0.00000000000000	0.00000000000000	0.00000000000000	18.03668500000000	0.00000000000000	0.00000000000000	0.00000000000000	0.00000000000000	
23.58990700000000	4.39467600000000	702.84344999999996	40.72080400000000	0.24797000000000	0.00000000000000	0.09413600000000	0.00000000000000	0.00000000000000	0.00000000000000	0.00000000000000	0.00000000000000	0.00000000000000	0.00000000000000	18.09529700000000	0.00000000000000	0.00000000000000	0.00000000000000	0.00000000000000	
23.59157800000000	3.98372000000000	703.40680099999997	40.75161300000000	0.24721700000000	0.00000000000000	0.09417000000000	0.00000000000000	0.00000000000000	0.00000000000000	0.00000000000000	0.00000000000000	0.00000000000000	0.00000000000000	18.15508100000000	0.00000000000000	0.00000000000000	0.00000000000000	0.00000000000000	
23.59324800000000	3.56346700000000	704.00338499999998	40.78261800000000	0.24644000000000	0.00000000000000	0.09420300000000	0.00000000000000	0.00000000000000	0.00000000000000	0.00000000000000	0.00000000000000	0.00000000000000	0.00000000000000	18.21595100000000	0.00000000000000	0.00000000000000	0.00000000000000	0.00000000000000	
23.59490800000000	3.13379300000000	704.63296700000001	40.81372300000000	0.24563900000000	0.00000000000000	0.09423500000000	0.00000000000000	0.00000000000000	0.00000000000000	0.00000000000000	0.00000000000000	0.00000000000000	0.00000000000000	18.27782800000000	0.00000000000000	0.00000000000000	0.00000000000000	0.00000000000000	
23.59657900000000	2.69459800000000	705.29536299999995	40.84484000000000	0.24481300000000	0.00000000000000	0.09426600000000	0.00000000000000	0.00000000000000	0.00000000000000	0.00000000000000	0.00000000000000	0.00000000000000	0.00000000000000	18.34064100000000	0.00000000000000	0.00000000000000	0.00000000000000	0.00000000000000	
23.59824500000000	2.24581200000000	705.99043300000005	40.87589200000000	0.24396300000000	0.00000000000000	0.09429600000000	0.00000000000000	0.00000000000000	0.00000000000000	0.00000000000000	0.00000000000000	0.00000000000000	0.00000000000000	18.40432500000000	0.00000000000000	0.00000000000000	0.00000000000000	0.00000000000000	
23.59991300000000	1.78739000000000	706.71808099999998	40.90681700000000	0.24308700000000	0.00000000000000	0.09432500000000	0.00000000000000	0.00000000000000	0.00000000000000	0.00000000000000	0.00000000000000	0.00000000000000	0.00000000000000	18.46882400000000	0.00000000000000	0.00000000000000	0.00000000000000	0.00000000000000	
23.60157800000000	1.31931700000000	707.47825899999998	40.93756100000000	0.24218600000000	0.00000000000000	0.09435400000000	0.00000000000000	0.00000000000000	0.00000000000000	0.00000000000000	0.00000000000000	0.00000000000000	0.00000000000000	18.53408700000000	0.00000000000000	0.00000000000000	0.00000000000000	0.00000000000000	
23.60324600000000	0.84160100000000	708.27095599999996	40.96808600000000	0.24126100000000	0.00000000000000	0.09438100000000	0.00000000000000	0.00000000000000	0.00000000000000	0.00000000000000	0.00000000000000	0.00000000000000	0.00000000000000	18.60007300000000	0.00000000000000	0.00000000000000	0.00000000000000	0.00000000000000	
23.60490800000000	0.35428200000000	709.09620399999994	40.99836400000000	0.24031000000000	0.00000000000000	0.09440800000000	0.00000000000000	0.00000000000000	0.00000000000000	0.00000000000000	0.00000000000000	0.00000000000000	0.00000000000000	18.66674500000000	0.00000000000000	0.00000000000000	0.00000000000000	0.00000000000000	
23.60657500000000	-0.14257800000000	709.95407299999999	41.02838200000000	0.23933600000000	0.00000000000000	0.09443300000000	0.00000000000000	0.00000000000000	0.00000000000000	0.00000000000000	0.00000000000000	0.00000000000000	0.00000000000000	18.73407600000000	0.00000000000000	0.00000000000000	0.00000000000000	0.00000000000000	
23.60824300000000	-0.64888600000000	710.84466599999996	41.05814000000000	0.23833900000000	0.00000000000000	0.09445800000000	0.00000000000000	0.00000000000000	0.00000000000000	0.00000000000000	0.00000000000000	0.00000000000000	0.00000000000000	18.80204200000000	0.00000000000000	0.00000000000000	0.00000000000000	0.00000000000000	
23.60990900000000	-1.16452500000000	711.76811799999996	41.08765300000000	0.23731900000000	0.00000000000000	0.09448100000000	0.00000000000000	0.00000000000000	0.00000000000000	0.00000000000000	0.00000000000000	0.00000000000000	0.00000000000000	18.87062800000000	0.00000000000000	0.00000000000000	0.00000000000000	0.00000000000000	
23.61158100000000	-1.68935300000000	712.72459400000002	41.11694900000000	0.23627800000000	0.00000000000000	0.09450400000000	0.00000000000000	0.00000000000000	0.00000000000000	0.00000000000000	0.00000000000000	0.00000000000000	0.00000000000000	18.93982200000000	0.00000000000000	0.00000000000000	0.00000000000000	0.00000000000000	
23.61324700000000	-2.22320100000000	713.71428100000003	41.14607100000000	0.23521600000000	0.00000000000000	0.09452500000000	0.00000000000000	0.00000000000000	0.00000000000000	0.00000000000000	0.00000000000000	0.00000000000000	0.00000000000000	19.00961900000000	0.00000000000000	0.00000000000000	0.00000000000000	0.00000000000000	
23.61490900000000	-2.76587600000000	714.73738800000001	41.17507700000000	0.23413500000000	0.00000000000000	0.09454600000000	0.00000000000000	0.00000000000000	0.00000000000000	0.00000000000000	0.00000000000000	0.00000000000000	0.00000000000000	19.08001900000000	0.00000000000000	0.00000000000000	0.00000000000000	0.00000000000000	
23.61657900000000	-3.31716100000000	715.79413999999997	41.20403900000000	0.23303600000000	0.00000000000000	0.09456500000000	0.00000000000000	0.00000000000000	0.00000000000000	0.00000000000000	0.00000000000000	0.00000000000000	0.00000000000000	19.15102600000000	0.00000000000000	0.00000000000000	0.00000000000000	0.00000000000000	
23.61824900000000	-3.87681600000000	716.88477300000000	41.23304500000000	0.23192000000000	0.00000000000000	0.09458200000000	0.00000000000000	0.00000000000000	0.00000000000000	0.00000000000000	0.00000000000000	0.00000000000000	0.00000000000000	19.22264700000000	0.00000000000000	0.00000000000000	0.00000000000000	0.00000000000000	
23.61991000000000	-4.44457800000000	718.00952900000004	41.26219900000000	0.23079000000000	0.00000000000000	0.09459900000000	0.00000000000000	0.00000000000000	0.00000000000000	0.00000000000000	0.00000000000000	0.00000000000000	0.00000000000000	19.29489400000000	0.00000000000000	0.00000000000000	0.00000000000000	0.00000000000000	
23.62158700000000	-5.02016300000000	719.16865299999995	41.29161700000000	0.22964600000000	0.00000000000000	0.09461400000000	0.00000000000000	0.00000000000000	0.00000000000000	0.00000000000000	0.00000000000000	0.00000000000000	0.00000000000000	19.36778200000000	0.00000000000000	0.00000000000000	0.00000000000000	0.00000000000000	
23.62324700000000	-5.60326800000000	720.36238600000001	41.32143400000000	0.22849100000000	0.00000000000000	0.09462800000000	0.00000000000000	0.00000000000000	0.00000000000000	0.00000000000000	0.00000000000000	0.00000000000000	0.00000000000000	19.44132600000000	0.00000000000000	0.00000000000000	0.00000000000000	0.00000000000000	
23.62490900000000	-6.19356800000000	721.59095900000000	41.35179600000000	0.22732600000000	0.00000000000000	0.09464000000000	0.00000000000000	0.00000000000000	0.00000000000000	0.00000000000000	0.00000000000000	0.00000000000000	0.00000000000000	19.51554600000000	0.00000000000000	0.00000000000000	0.00000000000000	0.00000000000000	
23.62658100000000	-6.79072100000000	722.85459100000003	41.38286600000000	0.22615300000000	0.00000000000000	0.09465000000000	0.00000000000000	0.00000000000000	0.00000000000000	0.00000000000000	0.00000000000000	0.00000000000000	0.00000000000000	19.59046200000000	0.00000000000000	0.00000000000000	0.00000000000000	0.00000000000000	
23.62824400000000	-7.39436900000000	724.15347699999995	41.41482200000000	0.22497300000000	0.00000000000000	0.09465900000000	0.00000000000000	0.00000000000000	0.00000000000000	0.00000000000000	0.00000000000000	0.00000000000000	0.00000000000000	19.66609300000000	0.00000000000000	0.00000000000000	0.00000000000000	0.00000000000000	
